<svg width="13" height="12" viewBox="0 0 13 12" fill="none" xmlns="http://www.w3.org/2000/svg">
<path d="M6.19995 12C2.88615 12 0.199951 9.3138 0.199951 6C0.199951 2.6862 2.88615 0 6.19995 0C9.51375 0 12.2 2.6862 12.2 6C12.2 9.3138 9.51375 12 6.19995 12ZM6.19995 10.8C7.47299 10.8 8.69389 10.2943 9.59406 9.39411C10.4942 8.49394 11 7.27304 11 6C11 4.72696 10.4942 3.50606 9.59406 2.60589C8.69389 1.70571 7.47299 1.2 6.19995 1.2C4.92691 1.2 3.70601 1.70571 2.80584 2.60589C1.90566 3.50606 1.39995 4.72696 1.39995 6C1.39995 7.27304 1.90566 8.49394 2.80584 9.39411C3.70601 10.2943 4.92691 10.8 6.19995 10.8ZM5.37315 3.849L8.30055 5.8002C8.33347 5.82211 8.36047 5.85181 8.37914 5.88667C8.39781 5.92153 8.40759 5.96046 8.40759 6C8.40759 6.03954 8.39781 6.07847 8.37914 6.11333C8.36047 6.14819 8.33347 6.17789 8.30055 6.1998L5.37255 8.151C5.33645 8.17493 5.29454 8.18865 5.25127 8.19069C5.20801 8.19273 5.165 8.18303 5.1268 8.16261C5.0886 8.14219 5.05664 8.11181 5.03431 8.0747C5.01197 8.03758 5.0001 7.99511 4.99995 7.9518V4.0482C5.00003 4.00479 5.01188 3.96222 5.03425 3.92501C5.05661 3.8878 5.08864 3.85736 5.12694 3.83692C5.16523 3.81648 5.20836 3.8068 5.25172 3.80893C5.29507 3.81106 5.33704 3.82491 5.37315 3.849Z" fill="#44B67D"/>
</svg>
