<svg width="15" height="14" viewBox="0 0 15 14" fill="none" xmlns="http://www.w3.org/2000/svg">
<path id="top_pic" d="M7.21256 0H7.18734C3.32788 0 0.199951 3.13546 0.199951 7.00421C0.199951 8.53823 0.696047 9.95424 1.53689 11.109L1.5537 11.0921C2.82337 12.8537 4.88343 14 7.21256 14C11.072 14 14.2 10.8645 14.2 6.99579C14.2 3.12703 11.0636 0 7.21256 0ZM4.39575 4.23119C4.39575 2.68874 5.6486 1.43287 7.18734 1.43287C8.72608 1.43287 9.97893 2.68874 9.97893 4.23119V5.12462C9.97893 6.6755 8.72608 7.92294 7.18734 7.92294C5.6486 7.92294 4.39575 6.66707 4.39575 5.12462V4.23119ZM7.21256 12.6008C5.36271 12.6008 3.73148 11.6905 2.71407 10.3082C3.16812 10.0807 3.63058 9.90367 4.051 9.78567C4.71527 9.60024 5.95971 9.33052 7.18734 9.33052C8.41497 9.33052 9.65941 9.60024 10.3237 9.78567C10.7525 9.90367 11.2318 10.0891 11.7027 10.3251C10.6852 11.7074 9.05401 12.6008 7.21256 12.6008Z" fill="white"/>
</svg>
