<svg width="32" height="32" viewBox="0 0 32 32" fill="none" xmlns="http://www.w3.org/2000/svg">
<path d="M10.2691 6.77472H6.85571V21.9329H20.8115V6.77472H17.3981H10.2691Z" fill="white"/>
<path d="M20.8115 22.4986H6.8557C6.54378 22.4986 6.29004 22.2449 6.29004 21.9329V6.77471C6.29004 6.46279 6.54378 6.20905 6.8557 6.20905H20.8115C21.1234 6.20905 21.3772 6.46279 21.3772 6.77471V21.9329C21.3772 22.2449 21.1234 22.4986 20.8115 22.4986ZM7.42137 21.3673H20.2458V7.34038H7.42137V21.3673Z" fill="#484E66"/>
<path d="M12.3362 16.1276H10.8525C10.5406 16.1276 10.2869 15.8738 10.2869 15.5619C10.2869 15.25 10.5406 14.9962 10.8525 14.9962H12.3362C12.6481 14.9962 12.9019 15.25 12.9019 15.5619C12.9019 15.8738 12.6481 16.1276 12.3362 16.1276Z" fill="#484E66"/>
<path d="M16.8146 13.3623H10.8525C10.5406 13.3623 10.2869 13.1086 10.2869 12.7967C10.2869 12.4847 10.5406 12.231 10.8525 12.231H16.8146C17.1266 12.231 17.3803 12.4847 17.3803 12.7967C17.3803 13.1086 17.1266 13.3623 16.8146 13.3623Z" fill="#484E66"/>
<path d="M16.8146 10.5954H10.8525C10.5406 10.5954 10.2869 10.3416 10.2869 10.0297C10.2869 9.71779 10.5406 9.46405 10.8525 9.46405H16.8146C17.1266 9.46405 17.3803 9.71779 17.3803 10.0297C17.3803 10.3416 17.1266 10.5954 16.8146 10.5954Z" fill="#484E66"/>
<path d="M25.2101 19.9476C25.2101 22.8987 22.8178 25.291 19.8668 25.291C16.9157 25.291 14.5234 22.8987 14.5234 19.9476C14.5234 16.9966 16.9157 14.6043 19.8668 14.6043C22.8178 14.6043 25.2101 16.9966 25.2101 19.9476Z" fill="#FCD1C3" stroke="#484E66"/>
<path d="M19.9846 22.713V17.0906" stroke="#484E66" stroke-width="0.8" stroke-linecap="round" stroke-linejoin="round"/>
<path d="M21.9364 19.008L20.0164 17.0906L18.0328 19.0742" stroke="#484E66" stroke-width="0.8" stroke-linecap="round" stroke-linejoin="round"/>
</svg>
