<svg width="33" height="32" viewBox="0 0 33 32" fill="none" xmlns="http://www.w3.org/2000/svg">
<path d="M9.73819 6.22302H5.81519V23.6443H21.8545V6.22302H17.9315H9.73819Z" fill="white"/>
<path d="M21.8546 24.2945H5.81528C5.45679 24.2945 5.16516 24.0028 5.16516 23.6443V6.22302C5.16516 5.86453 5.45679 5.57291 5.81528 5.57291H21.8546C22.2131 5.57291 22.5047 5.86453 22.5047 6.22302V23.6443C22.5047 24.0028 22.2131 24.2945 21.8546 24.2945ZM6.4654 22.9942H21.2045V6.87314H6.4654V22.9942Z" fill="#5E6479"/>
<path d="M9.73831 5.06952H17.9317V6.77654C17.9317 7.84831 17.0624 8.71947 15.9887 8.71947H11.6794C10.6076 8.71947 9.73645 7.85017 9.73645 6.77654V5.06952H9.73831Z" fill="#C1E5E8"/>
<path d="M15.9906 9.36959H11.6813C10.251 9.36959 9.09009 8.20681 9.09009 6.77655V5.06952C9.09009 4.71103 9.38171 4.4194 9.74021 4.4194H17.9336C18.292 4.4194 18.5837 4.71103 18.5837 5.06952V6.77655C18.5837 8.20681 17.4209 9.36959 15.9925 9.36959H15.9906ZM10.3885 5.71964V6.77655C10.3885 7.48796 10.968 8.06935 11.6794 8.06935H15.9888C16.7002 8.06935 17.2797 7.48982 17.2797 6.77655V5.71964H10.3885Z" fill="#5E6479"/>
<path d="M17.2612 16.2664H10.4089C10.0504 16.2664 9.75879 15.9748 9.75879 15.6163C9.75879 15.2578 10.0504 14.9662 10.4089 14.9662H17.2612C17.6196 14.9662 17.9113 15.2578 17.9113 15.6163C17.9113 15.9748 17.6196 16.2664 17.2612 16.2664Z" fill="#484E66"/>
<path d="M17.2612 13.0883H10.4089C10.0504 13.0883 9.75879 12.7966 9.75879 12.4381C9.75879 12.0796 10.0504 11.788 10.4089 11.788H17.2612C17.6196 11.788 17.9113 12.0796 17.9113 12.4381C17.9113 12.7966 17.6196 13.0883 17.2612 13.0883Z" fill="#484E66"/>
<path d="M12.5194 8.44177H8.59644V25.8631H24.6358V8.44177H20.7128H12.5194Z" fill="white"/>
<path d="M24.6359 26.5132H8.59653C8.23804 26.5132 7.94641 26.2216 7.94641 25.8631V8.44177C7.94641 8.08328 8.23804 7.79166 8.59653 7.79166H24.6359C24.9944 7.79166 25.286 8.08328 25.286 8.44177V25.8631C25.286 26.2216 24.9944 26.5132 24.6359 26.5132ZM9.24665 25.213H23.9858V9.09189H9.24665V25.213Z" fill="#484E66"/>
<path d="M12.5196 7.28827H20.7129V8.99529C20.7129 10.0671 19.8436 10.9382 18.77 10.9382H14.4606C13.3889 10.9382 12.5177 10.0689 12.5177 8.99529V7.28827H12.5196Z" fill="#C1E5E8"/>
<path d="M18.7719 11.5883H14.4625C13.0323 11.5883 11.8713 10.4256 11.8713 8.9953V7.28827C11.8713 6.92978 12.163 6.63815 12.5215 6.63815H20.7148C21.0733 6.63815 21.3649 6.92978 21.3649 7.28827V8.9953C21.3649 10.4256 20.2021 11.5883 18.7737 11.5883H18.7719ZM13.1697 7.93839V8.9953C13.1697 9.70671 13.7493 10.2881 14.4607 10.2881H18.77C19.4814 10.2881 20.061 9.70857 20.061 8.9953V7.93839H13.1697Z" fill="#484E66"/>
<path d="M20.0424 18.4852H13.1902C12.8317 18.4852 12.54 18.1935 12.54 17.8351C12.54 17.4766 12.8317 17.1849 13.1902 17.1849H20.0424C20.4009 17.1849 20.6925 17.4766 20.6925 17.8351C20.6925 18.1935 20.4009 18.4852 20.0424 18.4852Z" fill="#484E66"/>
<path d="M20.0424 15.307H13.1902C12.8317 15.307 12.54 15.0154 12.54 14.6569C12.54 14.2984 12.8317 14.0068 13.1902 14.0068H20.0424C20.4009 14.0068 20.6925 14.2984 20.6925 14.6569C20.6925 15.0154 20.4009 15.307 20.0424 15.307Z" fill="#484E66"/>
<path d="M27.835 23.338V21.343L26.5784 21.194C26.4942 20.8896 26.3711 20.6046 26.2286 20.3326L27.0123 19.3415L25.6003 17.9295L24.6093 18.7132C24.3372 18.5643 24.0522 18.4477 23.7478 18.357L23.5988 17.1004H21.6038L21.4548 18.357C21.1504 18.4412 20.8654 18.5643 20.5934 18.7132L19.6023 17.9295L18.1903 19.3415L18.974 20.3326C18.8251 20.6046 18.7085 20.8896 18.6178 21.194L17.3612 21.343V23.338L18.6178 23.487C18.702 23.7914 18.8251 24.0764 18.974 24.3485L18.1903 25.3395L19.6023 26.7515L20.5934 25.9678C20.8654 26.1168 21.1504 26.2334 21.4548 26.324L21.6038 27.5806H23.5988L23.7478 26.324C24.0458 26.2334 24.3372 26.1168 24.6028 25.9678L25.5938 26.7515L27.0059 25.3395L26.2221 24.3485C26.3711 24.0764 26.4877 23.7914 26.5719 23.487L27.8285 23.338H27.835ZM22.5948 23.759C21.8111 23.759 21.1763 23.1243 21.1763 22.3405C21.1763 21.5568 21.8111 20.922 22.5948 20.922C23.3786 20.922 24.0134 21.5568 24.0134 22.3405C24.0134 23.1243 23.3786 23.759 22.5948 23.759Z" fill="#FCD1C3" stroke="#484E66" stroke-width="0.8" stroke-linecap="round" stroke-linejoin="round"/>
</svg>
