<svg width="32" height="32" viewBox="0 0 32 32" fill="none" xmlns="http://www.w3.org/2000/svg">
<path d="M9.73831 6.72302H5.81531V24.1443H21.8547V6.72302H17.9317H9.73831Z" fill="white"/>
<path d="M21.8546 24.7945H5.81528C5.45679 24.7945 5.16516 24.5028 5.16516 24.1443V6.72302C5.16516 6.36453 5.45679 6.07291 5.81528 6.07291H21.8546C22.2131 6.07291 22.5047 6.36453 22.5047 6.72302V24.1443C22.5047 24.5028 22.2131 24.7945 21.8546 24.7945ZM6.4654 23.4942H21.2045V7.37314H6.4654V23.4942Z" fill="#484E66"/>
<path d="M9.73831 5.56952H17.9317V7.27654C17.9317 8.34831 17.0624 9.21947 15.9887 9.21947H11.6794C10.6076 9.21947 9.73645 8.35017 9.73645 7.27654V5.56952H9.73831Z" fill="#C1E5E8"/>
<path d="M15.9905 9.86959H11.6812C10.2509 9.86959 9.08997 8.70681 9.08997 7.27655V5.56952C9.08997 5.21103 9.38159 4.9194 9.74008 4.9194H17.9334C18.2919 4.9194 18.5835 5.21103 18.5835 5.56952V7.27655C18.5835 8.70681 17.4208 9.86959 15.9924 9.86959H15.9905ZM10.3883 6.21964V7.27655C10.3883 7.98796 10.9679 8.56935 11.6793 8.56935H15.9886C16.7001 8.56935 17.2796 7.98982 17.2796 7.27655V6.21964H10.3883Z" fill="#484E66"/>
<path d="M17.261 16.7664H10.4088C10.0503 16.7664 9.75867 16.4748 9.75867 16.1163C9.75867 15.7578 10.0503 15.4662 10.4088 15.4662H17.261C17.6195 15.4662 17.9112 15.7578 17.9112 16.1163C17.9112 16.4748 17.6195 16.7664 17.261 16.7664Z" fill="#484E66"/>
<path d="M17.261 13.5883H10.4088C10.0503 13.5883 9.75867 13.2966 9.75867 12.9381C9.75867 12.5796 10.0503 12.288 10.4088 12.288H17.261C17.6195 12.288 17.9112 12.5796 17.9112 12.9381C17.9112 13.2966 17.6195 13.5883 17.261 13.5883Z" fill="#484E66"/>
<circle cx="21.5938" cy="21.8931" r="1.34375" fill="white"/>
<path d="M26.835 22.838V20.843L25.5784 20.694C25.4942 20.3896 25.3711 20.1046 25.2286 19.8326L26.0123 18.8415L24.6003 17.4295L23.6093 18.2132C23.3372 18.0643 23.0522 17.9477 22.7478 17.857L22.5988 16.6004H20.6038L20.4548 17.857C20.1504 17.9412 19.8654 18.0643 19.5934 18.2132L18.6023 17.4295L17.1903 18.8415L17.974 19.8326C17.8251 20.1046 17.7085 20.3896 17.6178 20.694L16.3612 20.843V22.838L17.6178 22.987C17.702 23.2914 17.8251 23.5764 17.974 23.8485L17.1903 24.8395L18.6023 26.2515L19.5934 25.4678C19.8654 25.6168 20.1504 25.7334 20.4548 25.824L20.6038 27.0806H22.5988L22.7478 25.824C23.0458 25.7334 23.3372 25.6168 23.6028 25.4678L24.5938 26.2515L26.0059 24.8395L25.2221 23.8485C25.3711 23.5764 25.4877 23.2914 25.5719 22.987L26.8285 22.838H26.835ZM21.5948 23.259C20.8111 23.259 20.1763 22.6243 20.1763 21.8405C20.1763 21.0568 20.8111 20.422 21.5948 20.422C22.3786 20.422 23.0134 21.0568 23.0134 21.8405C23.0134 22.6243 22.3786 23.259 21.5948 23.259Z" fill="#FCD1C3" stroke="#484E66" stroke-width="0.8" stroke-linecap="round" stroke-linejoin="round"/>
</svg>
