<svg width="32" height="32" viewBox="0 0 32 32" fill="none" xmlns="http://www.w3.org/2000/svg">
<path d="M16 6.00287C10.4762 6.00287 6 10.4791 6 16.0029C6 21.5267 10.4762 26.0029 16 26.0029C21.5238 26.0029 26 21.5267 26 16.0029C26 10.4791 21.5209 6.00287 16 6.00287ZM16 20.0029C13.7893 20.0029 12 18.2107 12 16.0029C12 13.7951 13.7922 12.0029 16 12.0029C18.2078 12.0029 20 13.7951 20 16.0029C20 18.2107 18.2078 20.0029 16 20.0029Z" fill="white" stroke="#484E66" stroke-linecap="round" stroke-linejoin="round"/>
<path d="M16 6.00287V12C18.2106 12 20 13.7922 20 16C20 16.5022 19.9047 16.9812 19.7344 17.4228L25.3333 19.5555C25.7546 18.4502 25.9971 17.2525 25.9971 15.9971C25.9971 10.4733 21.5209 5.9971 15.9971 5.9971L16 6.00287Z" fill="#C1E5E8" stroke="#484E66" stroke-linecap="round" stroke-linejoin="round"/>
<path d="M19.7345 17.4257C19.4084 18.277 18.8023 18.9899 18.026 19.4459L21.065 24.6089C23.0044 23.4632 24.5195 21.6883 25.3334 19.5584L19.7345 17.4257Z" fill="#FCD1C3" stroke="#484E66" stroke-linecap="round" stroke-linejoin="round"/>
</svg>
