<svg width="32" height="32" viewBox="0 0 32 32" fill="none" xmlns="http://www.w3.org/2000/svg">
<path d="M23.2144 11.7746H9.03568C8.62724 11.7746 8.29614 12.1057 8.29614 12.5142V22.5824C8.29614 22.9908 8.62724 23.3219 9.03568 23.3219H23.2144C23.6228 23.3219 23.9539 22.9908 23.9539 22.5824V12.5142C23.9539 12.1057 23.6228 11.7746 23.2144 11.7746Z" fill="#C1E5E8" stroke="#484E66" stroke-linecap="round" stroke-linejoin="round"/>
<path d="M7.22906 22.3497H25.0209C25.354 22.3497 25.625 22.6206 25.625 22.9537V24.4121H6.625V22.9537C6.625 22.6206 6.89595 22.3497 7.22906 22.3497Z" fill="white" stroke="#484E66" stroke-linecap="round" stroke-linejoin="round"/>
<path d="M25.375 9.69772H6.375V20.125H25.375V9.69772Z" fill="white" stroke="#484E66" stroke-linecap="round" stroke-linejoin="round"/>
<path d="M19.4354 15.6514V14.3903L18.6408 14.2954C18.5872 14.1055 18.5108 13.9218 18.418 13.7526L18.9112 13.1252L18.0176 12.2336L17.3922 12.7269C17.2209 12.6319 17.0393 12.5576 16.8494 12.504L16.7545 11.7094H15.4935L15.3985 12.504C15.2086 12.5576 15.025 12.634 14.8557 12.7269L14.2283 12.2336L13.3367 13.1252L13.83 13.7526C13.735 13.9239 13.6607 14.1055 13.6071 14.2954L12.8125 14.3903V15.6514L13.6071 15.7463C13.6628 15.9362 13.7371 16.1199 13.83 16.2891L13.3367 16.9165L14.2283 17.8081L14.8557 17.3148C15.025 17.4098 15.2086 17.4841 15.3985 17.5377L15.4935 18.3303H16.7545L16.8494 17.5377C17.0393 17.482 17.2209 17.4077 17.3922 17.3148L18.0196 17.8081L18.9133 16.9165L18.42 16.2891C18.515 16.1199 18.5893 15.9362 18.6429 15.7463L19.4375 15.6514H19.4354ZM16.125 15.9176C15.6297 15.9176 15.2293 15.5151 15.2293 15.0198C15.2293 14.5245 15.6317 14.1241 16.125 14.1241C16.6183 14.1241 17.0207 14.5266 17.0207 15.0198C17.0207 15.5131 16.6183 15.9176 16.125 15.9176Z" fill="white" stroke="#4B4F65" stroke-width="0.7" stroke-linecap="round" stroke-linejoin="round"/>
<path d="M24.6684 7.58792H7.5816V9.69774H24.6684V7.58792Z" fill="#FCD1C3" stroke="#484E66" stroke-linecap="round" stroke-linejoin="round"/>
</svg>
