<svg width="14" height="14" viewBox="0 0 14 14" fill="none" xmlns="http://www.w3.org/2000/svg">
<g id="1212">
<path id="Vector" d="M7.89231 1.2002H2.09227C1.59945 1.2002 1.19995 1.5997 1.19995 2.09251V11.908C1.19995 12.4008 1.59945 12.8003 2.09227 12.8003H10.1231C10.6159 12.8003 11.0154 12.4008 11.0154 11.908V7.89255" stroke="#338BD3" stroke-width="1.1" stroke-linecap="round" stroke-linejoin="round"/>
<path id="Vector_2" d="M1.19995 10.123H11.0154" stroke="#338BD3" stroke-width="1.1" stroke-linecap="round" stroke-linejoin="round"/>
<path id="Vector_3" d="M3.87695 3.43066H5.66158" stroke="#338BD3" stroke-width="1.1" stroke-linecap="round" stroke-linejoin="round"/>
<path id="Vector_4" d="M3.87695 5.66113H4.76927" stroke="#338BD3" stroke-width="1.1" stroke-linecap="round" stroke-linejoin="round"/>
<path id="Vector_5" d="M8.77936 7.45157L6.10242 7.93342L6.54857 5.22079L10.323 1.46414C10.406 1.38051 10.5047 1.31412 10.6135 1.26882C10.7222 1.22352 10.8388 1.2002 10.9566 1.2002C11.0744 1.2002 11.1911 1.22352 11.2998 1.26882C11.4085 1.31412 11.5072 1.38051 11.5901 1.46414L12.536 2.41C12.6197 2.49294 12.6861 2.59163 12.7313 2.70037C12.7766 2.80911 12.7999 2.92574 12.7999 3.04354C12.7999 3.16133 12.7766 3.27797 12.7313 3.3867C12.6861 3.49543 12.6197 3.59413 12.536 3.67708L8.77936 7.45157Z" stroke="#338BD3" stroke-width="1.1" stroke-linecap="round" stroke-linejoin="round"/>
</g>
</svg>
