<svg width="7" height="10" viewBox="0 0 7 10" fill="none" xmlns="http://www.w3.org/2000/svg">
<path d="M1 0.5C0.45 0.5 0 0.95 0 1.5C0 2.05 0.45 2.5 1 2.5C1.55 2.5 2 2.05 2 1.5C2 0.95 1.55 0.5 1 0.5ZM1 7.5C0.45 7.5 0 7.95 0 8.5C0 9.05 0.45 9.5 1 9.5C1.55 9.5 2 9.05 2 8.5C2 7.95 1.55 7.5 1 7.5ZM1 4C0.45 4 0 4.45 0 5C0 5.55 0.45 6 1 6C1.55 6 2 5.55 2 5C2 4.45 1.55 4 1 4Z" fill="#333333"/>
<path d="M6 0.5C5.45 0.5 5 0.95 5 1.5C5 2.05 5.45 2.5 6 2.5C6.55 2.5 7 2.05 7 1.5C7 0.95 6.55 0.5 6 0.5ZM6 7.5C5.45 7.5 5 7.95 5 8.5C5 9.05 5.45 9.5 6 9.5C6.55 9.5 7 9.05 7 8.5C7 7.95 6.55 7.5 6 7.5ZM6 4C5.45 4 5 4.45 5 5C5 5.55 5.45 6 6 6C6.55 6 7 5.55 7 5C7 4.45 6.55 4 6 4Z" fill="#333333"/>
</svg>
