<svg width="13" height="14" viewBox="0 0 13 14" fill="none" xmlns="http://www.w3.org/2000/svg">
<g id="Group 1000006155">
<path id="Vector" d="M11.9951 4.99231C10.8902 8.56839 8.06808 11.3905 4.49199 12.4955C2.69235 13.0515 1.13152 11.4734 1.13152 9.58977C1.13152 9.11887 1.51459 8.74253 1.98217 8.68674C2.59113 8.61409 3.17643 8.46442 3.72806 8.24775L4.80756 9.32724C6.56331 8.48702 7.9867 7.06363 8.82693 5.30788L7.74743 4.22839C7.9641 3.67675 8.11377 3.09144 8.18643 2.48249C8.24221 2.01491 8.61856 1.63184 9.08946 1.63184C10.973 1.63184 12.5512 3.19267 11.9951 4.99231Z" stroke="#E97979" stroke-width="1.4" stroke-linecap="round" stroke-linejoin="round"/>
<path id="Vector_2" d="M5.42615 3.85449C5.15407 3.85449 4.88466 3.90808 4.6333 4.0122C4.38193 4.11632 4.15354 4.26893 3.96115 4.46131C3.76876 4.6537 3.61616 4.8821 3.51204 5.13346C3.40792 5.38482 3.35433 5.65423 3.35433 5.92631" stroke="#E97979" stroke-width="1.4" stroke-linecap="round" stroke-linejoin="round"/>
<path id="Vector_3" d="M4.92102 1.75879C4.44006 1.75879 3.9638 1.85352 3.51945 2.03758C3.07509 2.22164 2.67134 2.49141 2.33125 2.83151C1.99116 3.1716 1.72138 3.57535 1.53732 4.0197C1.35326 4.46406 1.25853 4.94031 1.25853 5.42128" stroke="#E97979" stroke-width="1.4" stroke-linecap="round" stroke-linejoin="round"/>
</g>
</svg>
