<svg width="13" height="14" viewBox="0 0 13 14" fill="none" xmlns="http://www.w3.org/2000/svg">
<g id="Group 1000006158">
<path id="Vector" d="M8.71051 5.42097H9.34209C10.0121 5.42097 10.921 5.42085 11.8684 5.42092C11.8684 6.36827 11.8684 7.27726 11.8684 7.94728C11.8684 8.6173 11.6022 9.25988 11.1285 9.73366C10.6547 10.2074 10.0121 10.4736 9.34209 10.4736H8.71051" stroke="#9C6DBF" stroke-width="1.2" stroke-linecap="round" stroke-linejoin="round"/>
<path id="Vector_2" d="M1.13159 4.78906H8.71054V10.4733C8.71054 11.1433 8.44437 11.7859 7.9706 12.2596C7.49682 12.7334 6.85424 12.9996 6.18422 12.9996H3.65791C2.98789 12.9996 2.34531 12.7334 1.87153 12.2596C1.39776 11.7859 1.13159 11.1433 1.13159 10.4733V4.78906Z" stroke="#9C6DBF" stroke-width="1.2" stroke-linecap="round" stroke-linejoin="round"/>
<path id="Vector_3" d="M2.39471 1V2.89474" stroke="#9C6DBF" stroke-width="1.2" stroke-linecap="round" stroke-linejoin="round"/>
<path id="Vector_4" d="M4.92108 1V2.89474" stroke="#9C6DBF" stroke-width="1.2" stroke-linecap="round" stroke-linejoin="round"/>
<path id="Vector_5" d="M7.44739 1V2.89474" stroke="#9C6DBF" stroke-width="1.2" stroke-linecap="round" stroke-linejoin="round"/>
</g>
</svg>
