<svg width="17" height="22" viewBox="0 0 17 22" fill="none" xmlns="http://www.w3.org/2000/svg">
<g id="icon_pw">
<path id="Oval_93" d="M8.34379 14.8518C8.8129 14.8518 9.19673 14.4679 9.19673 13.9988C9.19673 13.5297 8.8129 13.1459 8.34379 13.1459C7.87467 13.1459 7.49084 13.5297 7.49084 13.9988C7.49084 14.4679 7.87467 14.8518 8.34379 14.8518Z" stroke="black" stroke-linecap="round" stroke-linejoin="round"/>
<path id="Shape_764" d="M8.34387 14.8518V17.4106" stroke="black" stroke-linecap="round" stroke-linejoin="round"/>
<path id="Shape_817" d="M15.5 9.52945C15.5 9.06034 15.1162 8.67651 14.6471 8.67651H1.85294C1.38382 8.67651 1 9.06034 1 9.52945V19.7647C1 20.2339 1.38382 20.6177 1.85294 20.6177H14.6471C15.1162 20.6177 15.5 20.2339 15.5 19.7647V9.52945Z" stroke="black" stroke-width="1.3" stroke-linecap="round" stroke-linejoin="round"/>
<path id="Shape_818" d="M3.55884 5.69118C3.55884 3.09824 5.65707 1 8.25001 1C10.843 1 12.9412 3.09824 12.9412 5.69118V8.67647H3.55884V5.69118Z" stroke="black" stroke-width="1.3" stroke-linecap="round" stroke-linejoin="round"/>
</g>
</svg>
