<svg width="230" height="44" viewBox="0 0 230 44" fill="none" xmlns="http://www.w3.org/2000/svg">
<path d="M24.0314 1.16541V26.9152L8.07122 1.37369L7.915 1.16541H0V42.9795H8.43572V17.3078L24.474 42.9275L24.5261 42.9795H32.4671V1.16541H24.0314Z" fill="#757679"/>
<path d="M91.6211 20.7189H101.255L87.0127 1.08765H76.7805L91.517 20.5887L91.6211 20.7189Z" fill="#548A92"/>
<path d="M92.6629 22.5671L106.514 43.0576H116.694L102.869 22.5671H92.6629Z" fill="#DE6614"/>
<path d="M97.9742 13.1424L103.181 20.1982L116.694 1.08765H106.514L97.9742 13.1424Z" fill="#DE6614"/>
<path d="M76.8069 43.0577H87.0131L95.8393 30.5603L90.8404 23.2181L76.8069 43.0577Z" fill="#548A92"/>
<path d="M70.5581 42.9795H42.1005V1.16541H70.5581V9.23662H52.2807V17.386H69.2563V25.4572H52.2807V34.9083H70.5581V42.9795Z" fill="#757679"/>
<path d="M126.719 42.4171V1.47805H142.534C151.244 1.47805 156.587 7.24571 156.587 15.5579C156.587 24.0398 151.137 29.5813 142.267 29.5813H135.802V42.4171H126.719ZM135.802 21.9476H140.611C144.885 21.9476 147.183 19.403 147.183 15.5579C147.183 11.7128 144.885 9.28136 140.611 9.28136H135.802V21.9476Z" fill="#757679"/>
<path d="M175.341 42.4171H161.182V1.47805H175.341C187.149 1.47805 194.415 9.16827 194.415 21.9476C194.415 34.7269 187.149 42.4171 175.341 42.4171ZM170.265 34.1615H175.02C181.646 34.1615 185.279 30.8253 185.279 21.9476C185.279 13.0699 181.646 9.67718 174.913 9.67718H170.265V34.1615Z" fill="#757679"/>
<path d="M220.703 13.6354C220.489 10.6385 218.406 8.88554 214.665 8.88554C210.979 8.88554 209.109 10.5819 209.055 12.9003C209.002 15.4448 211.353 16.6888 214.826 17.4805L218.192 18.3287C225.619 20.0816 229.947 23.9832 230 30.5425C229.947 38.2893 224.283 42.9826 214.665 42.9826C205.048 42.9826 198.797 38.3458 198.636 28.9593H207.399C207.613 32.9175 210.391 34.9531 214.559 34.9531C218.406 34.9531 220.703 33.1436 220.757 30.5425C220.703 28.1676 218.726 26.9236 214.452 25.9058L210.391 24.888C203.712 23.2481 199.652 19.7423 199.652 13.5788C199.598 6.00171 205.956 0.912598 214.719 0.912598C223.642 0.912598 229.359 6.05826 229.466 13.6354H220.703Z" fill="#757679"/>
</svg>
