<svg width="200" height="71" viewBox="0 0 200 71" fill="none" xmlns="http://www.w3.org/2000/svg">
<rect y="0.912598" width="70" height="70" rx="35" fill="#55BEC8"/>
<path d="M40.4241 18.0977H49V41.0543C49 43.7901 48.4218 46.1075 47.2653 48.0064C46.1088 49.8893 44.4881 51.3135 42.4031 52.2791C40.3182 53.2447 37.8668 53.7275 35.0489 53.7275C32.2635 53.7275 29.8121 53.2447 27.6946 52.2791C25.5934 51.3135 23.9482 49.8893 22.7592 48.0064C21.5864 46.1075 21 43.7901 21 41.0543V18.0977H29.6003V41.0543C29.6003 42.5026 29.8121 43.6855 30.2356 44.6028C30.6591 45.504 31.2781 46.1638 32.0925 46.5822C32.9069 47.0006 33.8924 47.2098 35.0489 47.2098C36.2216 47.2098 37.2071 47.0006 38.0052 46.5822C38.8034 46.1638 39.406 45.504 39.8133 44.6028C40.2205 43.6855 40.4241 42.5026 40.4241 41.0543V18.0977Z" fill="white"/>
<path d="M104.42 41.7075H93.5508V34.8521H104.42C106.1 34.8521 107.467 34.5786 108.521 34.0317C109.576 33.4653 110.348 32.6841 110.836 31.688C111.324 30.6919 111.568 29.5688 111.568 28.3188C111.568 27.0493 111.324 25.8677 110.836 24.7739C110.348 23.6802 109.576 22.8013 108.521 22.1372C107.467 21.4731 106.1 21.1411 104.42 21.1411H96.5977V56.9126H87.8086V14.2563H104.42C107.76 14.2563 110.621 14.8618 113.004 16.0728C115.406 17.2642 117.242 18.9146 118.512 21.0239C119.781 23.1333 120.416 25.5454 120.416 28.2603C120.416 31.0142 119.781 33.397 118.512 35.4087C117.242 37.4204 115.406 38.9731 113.004 40.0669C110.621 41.1606 107.76 41.7075 104.42 41.7075ZM140.176 56.9126H130.889L130.948 50.0571H140.176C142.481 50.0571 144.424 49.5396 146.006 48.5044C147.588 47.4497 148.78 45.9165 149.58 43.9048C150.401 41.8931 150.811 39.4614 150.811 36.6099V34.5298C150.811 32.3423 150.577 30.4185 150.108 28.7583C149.659 27.0981 148.985 25.7017 148.086 24.5688C147.188 23.436 146.084 22.5864 144.776 22.02C143.467 21.4341 141.963 21.1411 140.264 21.1411H130.713V14.2563H140.264C143.116 14.2563 145.723 14.7446 148.086 15.7212C150.469 16.6782 152.53 18.0552 154.268 19.8521C156.006 21.6489 157.344 23.7974 158.282 26.2974C159.239 28.7778 159.717 31.5415 159.717 34.5884V36.6099C159.717 39.6372 159.239 42.4009 158.282 44.9009C157.344 47.4009 156.006 49.5493 154.268 51.3462C152.549 53.1235 150.489 54.5005 148.086 55.4771C145.704 56.4341 143.067 56.9126 140.176 56.9126ZM135.87 14.2563V56.9126H127.08V14.2563H135.87ZM188.911 45.7505C188.911 44.9888 188.794 44.3052 188.559 43.6997C188.345 43.0747 187.934 42.5083 187.329 42.0005C186.723 41.4731 185.874 40.9556 184.78 40.4478C183.686 39.9399 182.27 39.4126 180.532 38.8657C178.598 38.2407 176.762 37.5376 175.024 36.7563C173.305 35.9751 171.782 35.0669 170.454 34.0317C169.145 32.9771 168.11 31.7563 167.348 30.3696C166.606 28.9829 166.235 27.3716 166.235 25.5356C166.235 23.7583 166.626 22.147 167.407 20.7017C168.188 19.2368 169.282 17.9868 170.688 16.9517C172.095 15.897 173.755 15.0864 175.669 14.52C177.602 13.9536 179.721 13.6704 182.026 13.6704C185.171 13.6704 187.915 14.2368 190.259 15.3696C192.602 16.5024 194.419 18.0552 195.708 20.0278C197.016 22.0005 197.671 24.2563 197.671 26.7954H188.94C188.94 25.5454 188.677 24.4517 188.149 23.5142C187.641 22.5571 186.86 21.8052 185.805 21.2583C184.77 20.7114 183.462 20.438 181.88 20.438C180.356 20.438 179.087 20.6724 178.071 21.1411C177.055 21.5903 176.294 22.2056 175.786 22.9868C175.278 23.7485 175.024 24.6079 175.024 25.5649C175.024 26.2876 175.2 26.9419 175.552 27.5278C175.923 28.1138 176.47 28.6606 177.192 29.1685C177.915 29.6763 178.804 30.1548 179.858 30.604C180.913 31.0532 182.134 31.4927 183.52 31.9224C185.845 32.6255 187.886 33.4165 189.643 34.2954C191.421 35.1743 192.905 36.1606 194.096 37.2544C195.288 38.3481 196.186 39.5884 196.792 40.9751C197.397 42.3618 197.7 43.9341 197.7 45.6919C197.7 47.5474 197.339 49.2075 196.616 50.6724C195.893 52.1372 194.848 53.3774 193.481 54.3931C192.114 55.4087 190.483 56.1802 188.589 56.7075C186.694 57.2349 184.575 57.4985 182.231 57.4985C180.122 57.4985 178.042 57.2251 175.991 56.6782C173.94 56.1118 172.075 55.2622 170.395 54.1294C168.735 52.9966 167.407 51.5513 166.411 49.7935C165.415 48.0356 164.917 45.9556 164.917 43.5532H173.735C173.735 44.8813 173.94 46.0044 174.35 46.9224C174.761 47.8403 175.337 48.5825 176.079 49.1489C176.841 49.7153 177.739 50.1255 178.774 50.3794C179.829 50.6333 180.981 50.7603 182.231 50.7603C183.755 50.7603 185.005 50.5454 185.981 50.1157C186.977 49.686 187.71 49.0903 188.179 48.3286C188.667 47.5669 188.911 46.7075 188.911 45.7505Z" fill="#55BEC8"/>
</svg>
