<svg width="54" height="18" viewBox="0 0 54 18" fill="none" xmlns="http://www.w3.org/2000/svg">
<rect width="18" height="18" rx="9" fill="white"/>
<path d="M10.5497 3.91003H13V10.4691C13 11.2507 12.8348 11.9128 12.5044 12.4554C12.1739 12.9934 11.7109 13.4003 11.1152 13.6762C10.5195 13.952 9.81908 14.09 9.01396 14.09C8.21815 14.09 7.51774 13.952 6.91274 13.6762C6.31239 13.4003 5.84235 12.9934 5.50262 12.4554C5.16754 11.9128 5 11.2507 5 10.4691V3.91003H7.45724V10.4691C7.45724 10.8829 7.51774 11.2208 7.63874 11.4829C7.75974 11.7404 7.93659 11.9289 8.16928 12.0485C8.40198 12.168 8.68354 12.2278 9.01396 12.2278C9.34904 12.2278 9.6306 12.168 9.85864 12.0485C10.0867 11.9289 10.2589 11.7404 10.3752 11.4829C10.4916 11.2208 10.5497 10.8829 10.5497 10.4691V3.91003Z" fill="#55BEC8"/>
<path d="M23 14.7792V3.21511H27.5624C28.4395 3.21511 29.1867 3.38262 29.8041 3.71765C30.4214 4.04892 30.892 4.51005 31.2157 5.10105C31.5432 5.68829 31.707 6.36588 31.707 7.13381C31.707 7.90174 31.5413 8.57932 31.2101 9.16656C30.8788 9.7538 30.3989 10.2112 29.7702 10.5387C29.1453 10.8662 28.3887 11.0299 27.5003 11.0299H24.5923V9.07057H27.105C27.5756 9.07057 27.9633 8.98964 28.2682 8.82777C28.5769 8.66214 28.8065 8.4344 28.9571 8.14454C29.1114 7.85092 29.1886 7.51401 29.1886 7.13381C29.1886 6.74984 29.1114 6.41482 28.9571 6.12872C28.8065 5.83887 28.5769 5.61489 28.2682 5.45679C27.9595 5.29492 27.5681 5.21399 27.0937 5.21399H25.445V14.7792H23Z" fill="white"/>
<path d="M37.3944 14.7792H33.2951V3.21511H37.4283C38.5915 3.21511 39.5928 3.44662 40.4323 3.90963C41.2717 4.36889 41.9173 5.02953 42.369 5.89157C42.8245 6.75361 43.0523 7.78504 43.0523 8.98587C43.0523 10.1905 42.8245 11.2257 42.369 12.0915C41.9173 12.9573 41.268 13.6217 40.421 14.0847C39.5778 14.5477 38.5689 14.7792 37.3944 14.7792ZM35.74 12.6844H37.2928C38.0156 12.6844 38.6235 12.5564 39.1166 12.3004C39.6135 12.0407 39.9862 11.6397 40.2347 11.0977C40.4869 10.5518 40.613 9.84791 40.613 8.98587C40.613 8.13136 40.4869 7.43308 40.2347 6.89101C39.9862 6.34894 39.6154 5.94992 39.1223 5.69394C38.6292 5.43796 38.0212 5.30998 37.2985 5.30998H35.74V12.6844Z" fill="white"/>
<path d="M51.1367 6.54092C51.0915 6.08543 50.8977 5.73159 50.5551 5.47937C50.2126 5.22716 49.7477 5.10105 49.1604 5.10105C48.7614 5.10105 48.4245 5.15752 48.1497 5.27045C47.8749 5.37962 47.6641 5.53207 47.5173 5.72782C47.3742 5.92357 47.3027 6.14566 47.3027 6.39411C47.2952 6.60115 47.3385 6.78184 47.4326 6.93618C47.5305 7.09052 47.6641 7.22415 47.8335 7.33708C48.0029 7.44625 48.1986 7.54224 48.4207 7.62506C48.6428 7.70411 48.88 7.77187 49.1322 7.82833L50.1712 8.07678C50.6756 8.18971 51.1386 8.34029 51.5602 8.5285C51.9818 8.71672 52.347 8.94823 52.6556 9.22303C52.9643 9.49783 53.2033 9.82156 53.3727 10.1942C53.5459 10.5669 53.6344 10.9942 53.6381 11.476C53.6344 12.1837 53.4537 12.7973 53.0961 13.3168C52.7422 13.8325 52.2303 14.2334 51.5602 14.5195C50.8939 14.8018 50.0902 14.943 49.1491 14.943C48.2156 14.943 47.4025 14.7999 46.7098 14.5138C46.0209 14.2277 45.4826 13.8043 45.0949 13.2434C44.7109 12.6787 44.5096 11.9804 44.4907 11.1485H46.8566C46.883 11.5362 46.994 11.86 47.1898 12.1197C47.3893 12.3757 47.6547 12.5695 47.9859 12.7013C48.321 12.8293 48.6993 12.8933 49.1209 12.8933C49.535 12.8933 49.8945 12.8331 50.1994 12.7126C50.5081 12.5921 50.7471 12.4246 50.9165 12.21C51.0859 11.9955 51.1706 11.7489 51.1706 11.4704C51.1706 11.2106 51.0934 10.9923 50.9391 10.8154C50.7885 10.6384 50.5664 10.4879 50.2728 10.3636C49.9829 10.2394 49.6272 10.1265 49.2056 10.0248L47.9464 9.70863C46.9714 9.47148 46.2016 9.10069 45.637 8.59626C45.0723 8.09184 44.7919 7.41237 44.7956 6.55786C44.7919 5.85769 44.9782 5.24598 45.3547 4.72274C45.7349 4.19949 46.2562 3.79106 46.9187 3.49744C47.5813 3.20382 48.3341 3.05701 49.1774 3.05701C50.0356 3.05701 50.7847 3.20382 51.4247 3.49744C52.0684 3.79106 52.569 4.19949 52.9267 4.72274C53.2843 5.24598 53.4687 5.85204 53.48 6.54092H51.1367Z" fill="white"/>
</svg>
