<svg width="66" height="12" viewBox="0 0 66 12" fill="none" xmlns="http://www.w3.org/2000/svg">
<g id="LOGO">
<g id="nexus">
<path id="Vector" d="M6.69958 0.281097V7.46124L2.24733 0.341874L2.20775 0.281097H0V11.9446H2.35192V4.78706L6.82396 11.9234L6.83668 11.9446H9.0515V0.281097H6.69958Z" fill="white"/>
<path id="Vector_2" d="M25.5389 5.73236H28.2244L24.2542 0.258209H21.4061L25.5121 5.69702L25.5389 5.73236Z" fill="white"/>
<path id="Vector_3" d="M25.8344 6.2511L29.6901 11.9655H32.5297L28.6739 6.2511H25.8344Z" fill="white"/>
<path id="Vector_4" d="M27.3099 3.62637L28.7643 5.58961L32.5339 0.258209H29.6915L27.3099 3.62637Z" fill="white"/>
<path id="Vector_5" d="M21.4132 11.9655H24.2542L26.7206 8.47999L25.327 6.43054L21.4132 11.9655Z" fill="white"/>
<path id="Vector_6" d="M19.669 11.9443H11.7341V0.280823H19.669V2.5338H14.5737V4.80375H19.3058V7.05814H14.5737V9.6885H19.669V11.9443Z" fill="white"/>
</g>
<g id="PDS">
<path d="M35.3618 11.7567V0.192588H39.9242C40.8013 0.192588 41.5485 0.360102 42.1659 0.69513C42.7833 1.02639 43.2538 1.48753 43.5775 2.07853C43.905 2.66577 44.0688 3.34336 44.0688 4.11129C44.0688 4.87922 43.9032 5.5568 43.5719 6.14404C43.2406 6.73128 42.7607 7.18865 42.132 7.51615C41.5071 7.84365 40.7505 8.0074 39.8621 8.0074H36.9541V6.04805H39.4669C39.9374 6.04805 40.3251 5.96712 40.63 5.80525C40.9387 5.63962 41.1683 5.41187 41.3189 5.12202C41.4733 4.8284 41.5504 4.49149 41.5504 4.11129C41.5504 3.72732 41.4733 3.39229 41.3189 3.1062C41.1683 2.81635 40.9387 2.59237 40.63 2.43426C40.3214 2.2724 39.9299 2.19146 39.4556 2.19146H37.8068V11.7567H35.3618Z" fill="white"/>
<path d="M49.7563 11.7567H45.6569V0.192588H49.7901C50.9533 0.192588 51.9546 0.424096 52.7941 0.887113C53.6336 1.34636 54.2791 2.00701 54.7309 2.86905C55.1863 3.73109 55.4141 4.76252 55.4141 5.96335C55.4141 7.16795 55.1863 8.20315 54.7309 9.06895C54.2791 9.93475 53.6298 10.5992 52.7828 11.0622C51.9396 11.5252 50.9307 11.7567 49.7563 11.7567ZM48.1018 9.66184H49.6546C50.3774 9.66184 50.9853 9.53385 51.4785 9.27787C51.9754 9.01813 52.348 8.61723 52.5965 8.07516C52.8487 7.52933 52.9748 6.82539 52.9748 5.96335C52.9748 5.10884 52.8487 4.41055 52.5965 3.86849C52.348 3.32642 51.9772 2.9274 51.4841 2.67142C50.991 2.41544 50.383 2.28745 49.6603 2.28745H48.1018V9.66184Z" fill="white"/>
<path d="M63.4985 3.5184C63.4534 3.06291 63.2595 2.70906 62.9169 2.45685C62.5744 2.20464 62.1095 2.07853 61.5222 2.07853C61.1232 2.07853 60.7863 2.135 60.5115 2.24793C60.2367 2.3571 60.0259 2.50955 59.8791 2.7053C59.736 2.90105 59.6645 3.12314 59.6645 3.37159C59.657 3.57863 59.7003 3.75932 59.7944 3.91366C59.8923 4.068 60.0259 4.20163 60.1953 4.31456C60.3647 4.42373 60.5604 4.51972 60.7825 4.60254C61.0046 4.68159 61.2418 4.74935 61.494 4.80581L62.533 5.05426C63.0374 5.16719 63.5004 5.31776 63.922 5.50598C64.3436 5.6942 64.7088 5.92571 65.0174 6.20051C65.3261 6.47531 65.5652 6.79904 65.7346 7.17171C65.9077 7.54438 65.9962 7.97164 65.9999 8.45348C65.9962 9.16118 65.8155 9.77477 65.4579 10.2942C65.104 10.81 64.5921 11.2109 63.922 11.497C63.2557 11.7793 62.452 11.9205 61.5109 11.9205C60.5774 11.9205 59.7643 11.7774 59.0716 11.4913C58.3828 11.2052 57.8445 10.7817 57.4567 10.2208C57.0728 9.65619 56.8714 8.9579 56.8526 8.12598H59.2185C59.2448 8.51371 59.3558 8.83744 59.5516 9.09718C59.7511 9.35316 60.0165 9.54702 60.3478 9.67878C60.6828 9.80676 61.0611 9.87076 61.4827 9.87076C61.8968 9.87076 62.2563 9.81053 62.5612 9.69007C62.8699 9.56961 63.1089 9.4021 63.2783 9.18753C63.4477 8.97296 63.5324 8.72639 63.5324 8.44783C63.5324 8.18809 63.4552 7.96976 63.3009 7.79283C63.1503 7.61591 62.9282 7.46533 62.6346 7.34111C62.3448 7.21688 61.989 7.10395 61.5674 7.00232L60.3082 6.68611C59.3333 6.44896 58.5635 6.07817 57.9988 5.57374C57.4341 5.06932 57.1537 4.38985 57.1575 3.53534C57.1537 2.83517 57.34 2.22346 57.7165 1.70021C58.0967 1.17697 58.618 0.768535 59.2806 0.474915C59.9431 0.181295 60.696 0.0344849 61.5392 0.0344849C62.3975 0.0344849 63.1466 0.181295 63.7865 0.474915C64.4302 0.768535 64.9309 1.17697 65.2885 1.70021C65.6461 2.22346 65.8305 2.82952 65.8418 3.5184H63.4985Z" fill="white"/>
</g>
</g>
</svg>
