<svg width="14" height="14" viewBox="0 0 14 14" fill="none" xmlns="http://www.w3.org/2000/svg">
<path id="top_pic" d="M7.01261 0H6.98739C3.12793 0 0 3.13546 0 7.00421C0 8.53823 0.496096 9.95424 1.33694 11.109L1.35375 11.0921C2.62342 12.8537 4.68348 14 7.01261 14C10.8721 14 14 10.8645 14 6.99579C14 3.12703 10.8637 0 7.01261 0ZM4.1958 4.23119C4.1958 2.68874 5.44865 1.43287 6.98739 1.43287C8.52613 1.43287 9.77898 2.68874 9.77898 4.23119V5.12462C9.77898 6.6755 8.52613 7.92294 6.98739 7.92294C5.44865 7.92294 4.1958 6.66707 4.1958 5.12462V4.23119ZM7.01261 12.6008C5.16276 12.6008 3.53153 11.6905 2.51411 10.3082C2.96817 10.0807 3.43063 9.90367 3.85105 9.78567C4.51532 9.60024 5.75976 9.33052 6.98739 9.33052C8.21502 9.33052 9.45946 9.60024 10.1237 9.78567C10.5526 9.90367 11.0318 10.0891 11.5027 10.3251C10.4853 11.7074 8.85405 12.6008 7.01261 12.6008Z" fill="white"/>
</svg>
