<svg width="33" height="32" viewBox="0 0 33 32" fill="none" xmlns="http://www.w3.org/2000/svg">
<path d="M20.484 24.8897C20.4007 24.8897 20.3148 24.8746 20.2341 24.8392C17.4976 23.7033 14.8571 21.9109 12.6002 19.6541C10.4545 17.5083 8.71768 14.9991 7.57916 12.4015L7.56907 12.3863C7.44284 12.1364 7.49333 11.8309 7.69024 11.634C7.70034 11.6239 7.71043 11.6138 7.72053 11.6037C7.72053 11.6037 7.74577 11.581 7.7483 11.581C9.42451 10.1093 10.6463 9.02631 10.8205 8.85717C10.9291 8.73347 11.0805 8.65522 11.2471 8.63755C11.4895 8.6123 11.7318 8.73095 11.8631 8.93795L14.226 12.6791C14.3269 12.8407 14.3547 13.0376 14.2992 13.2168C14.2436 13.3986 14.1124 13.5475 13.9382 13.6233L12.8072 14.1231C13.5242 15.1531 14.337 16.125 15.2332 17.0211C16.2202 18.0082 17.2906 18.8892 18.4215 19.649L18.9517 18.45C19.0274 18.2758 19.1763 18.1445 19.3581 18.089C19.5398 18.0334 19.7368 18.0612 19.8958 18.1622L23.637 20.525C23.8465 20.6563 23.9626 20.8961 23.9374 21.141C23.9197 21.3076 23.8415 21.4616 23.7178 21.5676C23.5007 21.7898 21.9305 23.5745 20.9687 24.6676C20.8424 24.8115 20.6632 24.8897 20.4789 24.8897H20.484Z" fill="#FCD1C3" stroke="#484E66" stroke-linecap="round" stroke-linejoin="round"/>
<path d="M18.3735 7.11026C22.3015 7.11026 25.5 10.3062 25.5 14.2367" stroke="#484E66" stroke-linecap="round" stroke-linejoin="round"/>
<path d="M18.3735 10.1522C20.6278 10.1522 22.4555 11.9799 22.4555 14.2342" stroke="#484E66" stroke-linecap="round" stroke-linejoin="round"/>
</svg>
