<svg width="32" height="32" viewBox="0 0 32 32" fill="none" xmlns="http://www.w3.org/2000/svg">
<path d="M8.91408 20.6649L8.91408 18.2628L22.73 18.246L22.735 20.6481" stroke="#484E66" stroke-linecap="round" stroke-linejoin="round"/>
<path d="M18.0363 23.9553C18.0363 25.0782 17.1257 25.9944 16.0028 25.9944C14.88 25.9944 13.9638 25.0838 13.9638 23.9609C13.9638 22.8325 14.8744 21.9219 15.9972 21.9219C17.1201 21.9219 18.0363 22.8325 18.0363 23.9553Z" fill="#C1E5E8" stroke="#484E66" stroke-linecap="round" stroke-linejoin="round"/>
<path d="M11.4496 23.961C11.4496 25.0894 10.539 26 9.41615 26C8.29329 26 7.37712 25.0894 7.37712 23.9665C7.37712 22.8437 8.2877 21.9275 9.41056 21.9275C10.5334 21.9275 11.4496 22.8381 11.4496 23.961Z" fill="white" stroke="#484E66" stroke-linecap="round" stroke-linejoin="round"/>
<path d="M24.6229 23.9443C24.6229 25.0727 23.7123 25.9833 22.5895 25.9833C21.4666 25.9833 20.5505 25.0727 20.5505 23.9499C20.5505 22.827 21.461 21.9108 22.5839 21.9108C23.7068 21.9108 24.6229 22.8214 24.6229 23.9443Z" fill="white" stroke="#484E66" stroke-linecap="round" stroke-linejoin="round"/>
<path d="M16.0001 15.4822C18.4472 15.4822 20.431 13.4984 20.431 11.0513C20.431 8.60411 18.4472 6.6203 16.0001 6.6203C13.5529 6.6203 11.5691 8.60411 11.5691 11.0513C11.5691 13.4984 13.5529 15.4822 16.0001 15.4822Z" fill="#FCD1C3"/>
<path d="M16 16.1026C13.2156 16.1026 10.9487 13.8357 10.9487 11.0513C10.9487 8.26688 13.2156 6 16 6C18.7844 6 21.0513 8.26688 21.0513 11.0513C21.0513 13.8357 18.7844 16.1026 16 16.1026ZM16 7.24067C13.898 7.24067 12.1894 8.94925 12.1894 11.0513C12.1894 13.1533 13.898 14.8619 16 14.8619C18.1021 14.8619 19.8107 13.1533 19.8107 11.0513C19.8107 8.94925 18.1021 7.24067 16 7.24067Z" fill="#484E66"/>
<path d="M19.1361 8.30661L13.2563 14.1864" stroke="#484E66"/>
</svg>
