<svg width="33" height="32" viewBox="0 0 33 32" fill="none" xmlns="http://www.w3.org/2000/svg">
<path d="M15.1153 21.0156L13.7307 24.4772" stroke="#484E66" stroke-linecap="round" stroke-linejoin="round"/>
<path d="M17.8846 21.0156L19.2693 24.4772" stroke="#484E66" stroke-linecap="round" stroke-linejoin="round"/>
<path d="M12.3462 24.4785H20.6539" stroke="#484E66" stroke-linecap="round" stroke-linejoin="round"/>
<path d="M25.5 21.4923V8.35984C25.5 7.90654 25.19 7.53906 24.8077 7.53906H8.19231C7.82509 7.53906 7.5 7.92447 7.5 8.35984V21.4923C7.5 21.9277 7.82509 22.3131 8.19231 22.3131H24.8077C25.1749 22.3131 25.5 21.9277 25.5 21.4923Z" fill="white" stroke="#484E66" stroke-linecap="round" stroke-linejoin="round"/>
<path d="M14.5114 12.3766C14.5114 13.2457 13.8066 13.9548 12.9375 13.9548C12.0684 13.9548 11.3593 13.25 11.3593 12.3809C11.3593 11.5075 12.0641 10.8027 12.9332 10.8027C13.8023 10.8027 14.5114 11.5075 14.5114 12.3766Z" fill="#FCD1C3" stroke="#484E66" stroke-linecap="round" stroke-linejoin="round"/>
<path d="M21.6406 12.3688C21.6406 13.2422 20.9359 13.947 20.0668 13.947C19.1977 13.947 18.4886 13.2422 18.4886 12.3731C18.4886 11.504 19.1934 10.7949 20.0624 10.7949C20.9315 10.7949 21.6406 11.4997 21.6406 12.3688Z" fill="#C1E5E8" stroke="#484E66" stroke-linecap="round" stroke-linejoin="round"/>
<path d="M14.5114 17.6266C14.5114 18.4957 13.8066 19.2048 12.9375 19.2048C12.0684 19.2048 11.3593 18.5 11.3593 17.6309C11.3593 16.7575 12.0641 16.0527 12.9332 16.0527C13.8023 16.0527 14.5114 16.7575 14.5114 17.6266Z" fill="#FCD1C3" stroke="#484E66" stroke-linecap="round" stroke-linejoin="round"/>
<path d="M21.6406 17.6188C21.6406 18.4922 20.9359 19.197 20.0668 19.197C19.1977 19.197 18.4886 18.4922 18.4886 17.6231C18.4886 16.754 19.1934 16.0449 20.0624 16.0449C20.9315 16.0449 21.6406 16.7497 21.6406 17.6188Z" fill="#C1E5E8" stroke="#484E66" stroke-linecap="round" stroke-linejoin="round"/>
</svg>
