<svg width="32" height="32" viewBox="0 0 32 32" fill="none" xmlns="http://www.w3.org/2000/svg">
<path d="M6 16.6061V21.289C6 22.9413 9.08456 24.2822 12.8873 24.2822C16.6901 24.2822 19.7746 22.9413 19.7746 21.289V16.6061" fill="white"/>
<path d="M6 16.6061V21.289C6 22.9413 9.08456 24.2822 12.8873 24.2822C16.6901 24.2822 19.7746 22.9413 19.7746 21.289V16.6061" stroke="#484E66" stroke-linecap="round" stroke-linejoin="round"/>
<path d="M6 11.0639V15.7468C6 17.399 9.08456 18.74 12.8873 18.74C16.6901 18.74 19.7746 17.399 19.7746 15.7468V11.0639" fill="white"/>
<path d="M6 11.0639V15.7468C6 17.399 9.08456 18.74 12.8873 18.74C16.6901 18.74 19.7746 17.399 19.7746 15.7468V11.0639" stroke="#484E66" stroke-linecap="round" stroke-linejoin="round"/>
<path d="M19.7746 10.711C19.7746 12.3674 16.6901 13.7042 12.8873 13.7042C9.08456 13.7042 6 12.3674 6 10.711C6 9.05455 9.08456 7.71777 12.8873 7.71777C16.6901 7.71777 19.7746 9.0587 19.7746 10.711Z" fill="white" stroke="#484E66" stroke-linecap="round" stroke-linejoin="round"/>
<path d="M26 19.9811V17.9861L24.7434 17.8371C24.6592 17.5327 24.5361 17.2477 24.3936 16.9756L25.1774 15.9846L23.7653 14.5726L22.7743 15.3563C22.5023 15.2073 22.2173 15.0907 21.9128 15.0001L21.7639 13.7435H19.7689L19.6199 15.0001C19.3155 15.0843 19.0304 15.2073 18.7584 15.3563L17.7674 14.5726L16.3553 15.9846L17.1391 16.9756C16.9901 17.2477 16.8735 17.5327 16.7828 17.8371L15.5262 17.9861V19.9811L16.7828 20.1301C16.867 20.4345 16.9901 20.7195 17.1391 20.9915L16.3553 21.9826L17.7674 23.3946L18.7584 22.6109C19.0304 22.7598 19.3155 22.8764 19.6199 22.9671L19.7689 24.2237H21.7639L21.9128 22.9671C22.2108 22.8764 22.5023 22.7598 22.7678 22.6109L23.7589 23.3946L25.1709 21.9826L24.3872 20.9915C24.5361 20.7195 24.6527 20.4345 24.7369 20.1301L25.9935 19.9811H26ZM20.7599 20.4021C19.9761 20.4021 19.3414 19.7673 19.3414 18.9836C19.3414 18.1998 19.9761 17.5651 20.7599 17.5651C21.5436 17.5651 22.1784 18.1998 22.1784 18.9836C22.1784 19.7673 21.5436 20.4021 20.7599 20.4021Z" fill="#FCD1C3" stroke="#484E66" stroke-width="0.8" stroke-linecap="round" stroke-linejoin="round"/>
</svg>
