<svg width="32" height="32" viewBox="0 0 32 32" fill="none" xmlns="http://www.w3.org/2000/svg">
<path d="M18.5063 24.972C18.4264 24.972 18.3442 24.9555 18.2666 24.925C15.6305 23.8325 13.0883 22.1056 10.9151 19.9299C8.84514 17.8624 7.1723 15.4447 6.07508 12.9425L6.06569 12.9284C5.94586 12.6864 5.99285 12.3951 6.18316 12.2024C6.19256 12.193 6.20431 12.1836 6.2137 12.1742L6.23955 12.1507C7.856 10.734 9.03075 9.69082 9.19992 9.52635C9.3033 9.40888 9.44896 9.33135 9.61108 9.3149C9.84603 9.2914 10.0763 9.40418 10.2032 9.60389L12.4798 13.208C12.5761 13.3631 12.602 13.551 12.5503 13.7273C12.4963 13.9011 12.3694 14.0444 12.2026 14.1196L11.1148 14.5989C11.8055 15.5928 12.5879 16.5279 13.4502 17.3901C14.4017 18.3417 15.4331 19.1898 16.5233 19.9205L17.0331 18.7669C17.106 18.6001 17.2493 18.4732 17.4255 18.4192C17.6017 18.3652 17.7897 18.391 17.9448 18.4897L21.5489 20.7664C21.7509 20.8932 21.8614 21.1235 21.8379 21.3608C21.8214 21.5229 21.7439 21.6686 21.6264 21.7719C21.4173 21.9857 19.9042 23.7032 18.9785 24.7582C18.8564 24.8968 18.6825 24.972 18.5063 24.972Z" fill="#C1E5E8" stroke="#4B4F65" stroke-linecap="round" stroke-linejoin="round"/>
<path d="M21.2443 16.5395C23.8708 16.5395 26 14.4103 26 11.7838C26 9.15726 23.8708 7.02805 21.2443 7.02805C18.6177 7.02805 16.4885 9.15726 16.4885 11.7838C16.4885 14.4103 18.6177 16.5395 21.2443 16.5395Z" fill="white" stroke="#484E66" stroke-linecap="round" stroke-linejoin="round"/>
<path d="M20.9023 12.1067H23.4836" stroke="#484E66" stroke-linecap="round" stroke-linejoin="round"/>
<path d="M20.9023 12.1067V9.00467" stroke="#484E66" stroke-linecap="round" stroke-linejoin="round"/>
</svg>
