<svg width="32" height="32" viewBox="0 0 32 32" fill="none" xmlns="http://www.w3.org/2000/svg">
<path d="M20 7.5625L13.6875 7.6875L7.4375 13.75V21.6875L7.875 23.1875H12.5L20.5 22.8125V12.125L20.5625 8.4375L20 7.5625Z" fill="white"/>
<path d="M13.373 7.24542V13.3993H7.21914" fill="#C1E5E8"/>
<path d="M13.373 7.24542V13.3993H7.21914" stroke="#484E66" stroke-linecap="round" stroke-linejoin="round"/>
<path d="M20.7576 11.5531V8.47619C20.7576 8.14977 20.628 7.83672 20.3971 7.60591C20.1663 7.37509 19.8533 7.24542 19.5269 7.24542H13.373L7.21917 13.3993V22.0147C7.21917 22.3411 7.34884 22.6541 7.57965 22.8849C7.81047 23.1158 8.12352 23.2454 8.44994 23.2454H12.7576" stroke="#484E66" stroke-linecap="round" stroke-linejoin="round"/>
<circle cx="19.5397" cy="19.5671" r="1.34375" fill="white"/>
<path d="M24.7808 20.512V18.517L23.5242 18.368C23.44 18.0636 23.317 17.7786 23.1745 17.5065L23.9582 16.5155L22.5462 15.1035L21.5551 15.8872C21.2831 15.7382 20.9981 15.6217 20.6937 15.531L20.5447 14.2744H18.5497L18.4007 15.531C18.0963 15.6152 17.8113 15.7382 17.5392 15.8872L16.5482 15.1035L15.1362 16.5155L15.9199 17.5065C15.7709 17.7786 15.6543 18.0636 15.5637 18.368L14.3071 18.517V20.512L15.5637 20.661C15.6479 20.9654 15.7709 21.2504 15.9199 21.5225L15.1362 22.5135L16.5482 23.9255L17.5392 23.1418C17.8113 23.2907 18.0963 23.4073 18.4007 23.498L18.5497 24.7546H20.5447L20.6937 23.498C20.9916 23.4073 21.2831 23.2907 21.5487 23.1418L22.5397 23.9255L23.9517 22.5135L23.168 21.5225C23.317 21.2504 23.4335 20.9654 23.5177 20.661L24.7743 20.512H24.7808ZM19.5407 20.933C18.757 20.933 18.1222 20.2982 18.1222 19.5145C18.1222 18.7307 18.757 18.096 19.5407 18.096C20.3245 18.096 20.9592 18.7307 20.9592 19.5145C20.9592 20.2982 20.3245 20.933 19.5407 20.933Z" fill="#FCD1C3" stroke="#484E66" stroke-width="0.8" stroke-linecap="round" stroke-linejoin="round"/>
</svg>
