<svg width="32" height="32" viewBox="0 0 32 32" fill="none" xmlns="http://www.w3.org/2000/svg">
<rect x="8.625" y="7.96875" width="14.375" height="12.4062" fill="white"/>
<path d="M23.3578 18.7265V18.873V20.22" stroke="#484E66" stroke-linecap="round" stroke-linejoin="round"/>
<path d="M8.24951 10.6868V8.67361C8.24951 8.5193 8.29191 8.37576 8.36258 8.24298C8.43795 8.1102 8.54159 7.99178 8.6735 7.8913C8.80541 7.79082 8.96088 7.71187 9.13518 7.65445C9.30949 7.59704 9.49793 7.56833 9.70051 7.56833H21.902C22.1046 7.56833 22.2931 7.60063 22.4674 7.65445C22.6417 7.71187 22.7971 7.79082 22.929 7.8913C23.061 7.99178 23.1646 8.1102 23.24 8.24298C23.3154 8.37576 23.353 8.5193 23.353 8.67361V10.6868" stroke="#484E66" stroke-linecap="round" stroke-linejoin="round"/>
<path d="M8.24963 20.22V18.873V18.7265" stroke="#484E66" stroke-linecap="round" stroke-linejoin="round"/>
<path d="M6.8551 20.889V22.9807C6.8551 23.7816 7.50522 24.4317 8.3061 24.4317H23.2966C24.0974 24.4317 24.7523 23.7816 24.7523 22.9807V20.889H6.8551Z" fill="white" stroke="#484E66" stroke-linecap="round" stroke-linejoin="round"/>
<path d="M18.2279 14.6267C18.2279 15.8553 17.2316 16.8577 16.003 16.8577C14.7744 16.8577 13.7719 15.8614 13.7719 14.6328C13.7719 13.3981 14.7682 12.4017 15.9968 12.4017C17.2255 12.4017 18.2279 13.3981 18.2279 14.6267Z" fill="#FCD1C3" stroke="#484E66" stroke-linecap="round" stroke-linejoin="round"/>
<path d="M11.0209 14.6328C11.0209 15.8676 10.0245 16.8639 8.79593 16.8639C7.56732 16.8639 6.56488 15.8676 6.56488 14.639C6.56488 13.4103 7.56121 12.4079 8.78982 12.4079C10.0184 12.4079 11.0209 13.4042 11.0209 14.6328Z" fill="#C1E5E8" stroke="#484E66" stroke-linecap="round" stroke-linejoin="round"/>
<path d="M25.4349 14.6145C25.4349 15.8493 24.4386 16.8456 23.21 16.8456C21.9814 16.8456 20.9789 15.8493 20.9789 14.6206C20.9789 13.392 21.9753 12.3896 23.2039 12.3896C24.4325 12.3896 25.4349 13.3859 25.4349 14.6145Z" fill="#C1E5E8" stroke="#484E66" stroke-linecap="round" stroke-linejoin="round"/>
</svg>
