<svg width="33" height="32" viewBox="0 0 33 32" fill="none" xmlns="http://www.w3.org/2000/svg">
<path d="M14.8518 24.3338H6.5C6.87183 24.2988 7.24723 23.8403 7.5976 22.9543C7.95156 22.0683 8.28048 20.7549 8.5665 19.014C9.58187 12.8238 11.1478 12.031 12.3062 16.6358C12.4743 17.312 12.6351 18.1047 12.7853 19.014C13.3573 22.4958 14.1046 24.2678 14.8518 24.3338Z" fill="#C1E5E8" stroke="#484E66" stroke-linecap="round" stroke-linejoin="round"/>
<path d="M24.9412 24.334H16.5894C16.9612 24.3107 17.3366 24.0037 17.687 23.4052C18.0409 22.8107 18.3698 21.9286 18.6523 20.7628C18.831 20.0323 19.0277 19.4144 19.235 18.9092C20.3791 16.1114 21.8879 16.7293 22.8747 20.7628C23.4467 23.1021 24.1939 24.2873 24.9412 24.334Z" fill="#FCD1C3" stroke="#484E66" stroke-linecap="round" stroke-linejoin="round"/>
<path d="M26.5 24.3337H6.5V7.66699" stroke="#484E66" stroke-linecap="round" stroke-linejoin="round"/>
<path d="M17.712 16.8769C16.5464 6.92513 14.6551 6.92513 13.4896 16.8769C12.9176 21.7577 12.1739 24.2369 11.4231 24.3301H19.7785C19.0277 24.2369 18.284 21.7577 17.712 16.8769Z" fill="white" stroke="#484E66" stroke-linecap="round" stroke-linejoin="round"/>
</svg>
